<svg width="360" height="197" viewBox="0 0 360 197" fill="none" xmlns="http://www.w3.org/2000/svg">
<mask id="mask0" mask-type="alpha" maskUnits="userSpaceOnUse" x="0" y="0" width="360" height="197">
<rect width="360" height="197" fill="white"/>
</mask>
<g mask="url(#mask0)">
<path d="M132 9.89512e-06C132 25.1956 142.009 49.3592 159.825 67.1751C177.641 84.9911 201.805 95 227 95C252.196 95 276.359 84.9911 294.175 67.1751C311.991 49.3592 322 25.1956 322 0L227 1.13286e-06L132 9.89512e-06Z" fill="#F58576"/>
<ellipse rx="43.5" ry="44.5" transform="matrix(-1 1.74846e-07 1.74846e-07 1 -0.5 149.5)" fill="#715EF6"/>
<path d="M-48 5.00003C-48 54.7057 -7.7056 95 42 95C91.7057 95 132 54.7056 132 5C132 -44.7056 91.7056 -85 42 -85C-7.70563 -85 -48 -44.7056 -48 5.00003Z" fill="#FFB5B2"/>
<path fill-rule="evenodd" clip-rule="evenodd" d="M-1.3877 193.673C-1.4502 192.716 -1.48193 191.751 -1.48193 190.779C-1.48194 166.64 18.0867 147.071 42.2259 147.071C42.6819 147.071 43.1362 147.078 43.5887 147.092C43.6512 148.049 43.683 149.013 43.683 149.985C43.683 174.125 24.1143 193.693 -0.0248756 193.693C-0.480814 193.693 -0.935122 193.686 -1.3877 193.673Z" fill="#F58576"/>
<circle r="45" transform="matrix(-1 1.74846e-07 1.74846e-07 1 85 150)" fill="#FFCE68"/>
<path fill-rule="evenodd" clip-rule="evenodd" d="M88.9926 194.825C88.9975 194.551 89 194.276 89 194C89 169.147 68.8528 149 44 149C42.6545 149 41.3227 149.059 40.0072 149.175C40.0023 149.449 39.9998 149.724 39.9998 150C39.9998 174.853 60.147 195 84.9998 195C86.3453 195 87.6771 194.941 88.9926 194.825Z" fill="#F58576"/>
<circle r="45" transform="matrix(-1 1.74846e-07 1.74846e-07 1 40 105)" fill="#F58576"/>
<circle r="90" transform="matrix(-1 1.74846e-07 1.74846e-07 1 304 60)" fill="#FFCE68"/>
<ellipse rx="30" ry="30" transform="matrix(-1 1.74846e-07 1.74846e-07 1 215 105)" fill="#F58576"/>
<circle r="45" transform="matrix(-1 1.74846e-07 1.74846e-07 1 215 62)" fill="#715EF6"/>
<circle r="45" transform="matrix(-1 1.74846e-07 1.74846e-07 1 362 150)" fill="#715EF6"/>
<ellipse cx="307.5" cy="144.5" rx="22.5" ry="22.5" transform="rotate(180 307.5 144.5)" fill="#FFB5B2"/>
</g>
</svg>
