<svg width="200" height="65" viewBox="0 0 200 65" fill="none" xmlns="http://www.w3.org/2000/svg">
<path d="M6.64673 58.7039V56.1818L9.79619 55.6214V32.5424H3.41997L2.85964 36.5857H0V29.56H23.3795V36.5857H20.5585L19.9788 32.5424H13.6026V55.6214L16.7521 56.1818V58.7039H6.64673Z" fill="black"/>
<path d="M34.9332 59.1242C33.001 59.1242 31.32 58.6705 29.8902 57.7631C28.4604 56.8424 27.3526 55.568 26.5668 53.94C25.7939 52.312 25.4075 50.4304 25.4075 48.2953V47.4146C25.4075 45.3596 25.8133 43.5248 26.6248 41.9101C27.4492 40.2821 28.5376 39.001 29.8902 38.0669C31.2556 37.1195 32.7434 36.6458 34.3535 36.6458C37.1616 36.6458 39.287 37.5265 40.7297 39.2879C42.1853 41.0494 42.9131 43.398 42.9131 46.3337V48.7957H29.3492L29.2912 48.8958C29.3298 50.9775 29.8386 52.6923 30.8176 54.0401C31.7966 55.3745 33.1684 56.0417 34.9332 56.0417C36.2213 56.0417 37.3484 55.8549 38.3145 55.4812C39.2935 55.0943 40.1372 54.5672 40.8457 53.8999L42.3335 56.462C41.5863 57.2093 40.5945 57.8432 39.3579 58.3636C38.1342 58.8707 36.6593 59.1242 34.9332 59.1242ZM29.4651 45.7132H39.1067V45.1928C39.1067 43.6449 38.7074 42.3505 37.9087 41.3096C37.1101 40.2687 35.925 39.7483 34.3535 39.7483C33.0783 39.7483 31.9898 40.3088 31.0881 41.4297C30.1864 42.5373 29.6325 43.9318 29.4264 45.6131L29.4651 45.7132Z" fill="black"/>
<path d="M53.7519 59.1242C51.575 59.1242 49.9197 58.5771 48.7862 57.4829C47.6526 56.3753 47.0859 54.8207 47.0859 52.819C47.0859 50.764 47.8974 49.116 49.5204 47.875C51.1435 46.6206 53.3977 45.9934 56.2831 45.9934H60.0122V43.8717C60.0122 42.564 59.6258 41.5498 58.8529 40.8292C58.0929 40.1086 57.0173 39.7483 55.6261 39.7483C54.7502 39.7483 53.9902 39.8617 53.3462 40.0886C52.7021 40.3021 52.116 40.6024 51.5879 40.9893L51.1821 44.0118H48.2452V39.0477C50.1387 37.4464 52.6184 36.6458 55.6841 36.6458C58.2217 36.6458 60.2119 37.273 61.6546 38.5273C63.0973 39.7817 63.8186 41.5765 63.8186 43.9117V54.3403C63.8186 54.6205 63.8186 54.8941 63.8186 55.161C63.8315 55.4279 63.8508 55.6947 63.8766 55.9616L65.9054 56.1818V58.7039H60.4373C60.2183 57.6096 60.083 56.6155 60.0315 55.7214C59.2973 56.6956 58.3763 57.5096 57.2685 58.1634C56.1736 58.804 55.0014 59.1242 53.7519 59.1242ZM54.3122 55.8215C55.5746 55.8215 56.7275 55.5079 57.7709 54.8807C58.8142 54.2536 59.5614 53.4996 60.0122 52.6189V48.6957H56.1478C54.396 48.6957 53.0821 49.1294 52.2062 49.9967C51.3302 50.8641 50.8923 51.8316 50.8923 52.8991C50.8923 54.8474 52.0323 55.8215 54.3122 55.8215Z" fill="black"/>
<path d="M79.1014 59.1242C77.2079 59.1242 75.5591 58.6705 74.155 57.7631C72.751 56.8424 71.6625 55.568 70.8896 53.94C70.1168 52.312 69.7303 50.4304 69.7303 48.2953V47.4546C69.7303 45.3996 70.1039 43.5581 70.851 41.9301C71.5981 40.3021 72.6737 39.0144 74.0778 38.0669C75.4818 37.1195 77.1564 36.6458 79.1014 36.6458C80.7889 36.6458 82.2638 36.9327 83.5262 37.5065C84.8014 38.0803 85.8705 38.8676 86.7336 39.8684L86.8302 45.0727H83.8546L83.1977 41.2896C82.7597 40.8225 82.2123 40.4489 81.5553 40.1687C80.8984 39.8884 80.1255 39.7483 79.2367 39.7483C78.1031 39.7483 77.1049 40.0953 76.2418 40.7892C75.3916 41.4831 74.7283 42.4105 74.2517 43.5715C73.775 44.7324 73.5368 46.0268 73.5368 47.4546V48.2953C73.5368 50.6706 74.0327 52.5588 75.0245 53.96C76.0164 55.3478 77.3689 56.0417 79.0821 56.0417C80.3702 56.0417 81.4394 55.6747 82.2896 54.9408C83.1397 54.2069 83.6614 53.1994 83.8546 51.9183H87.2746L87.3132 52.0384C87.2488 53.2794 86.8946 54.4404 86.2505 55.5213C85.6065 56.6022 84.6855 57.4762 83.4875 58.1434C82.3024 58.7973 80.8404 59.1242 79.1014 59.1242Z" fill="black"/>
<path d="M90.5972 58.7039V56.1818L93.7467 55.6214V30.5808L90.5972 30.0203V27.4782H97.5531V39.9285C98.2744 38.8876 99.1568 38.0803 100.2 37.5065C101.244 36.9327 102.403 36.6458 103.678 36.6458C105.919 36.6458 107.658 37.3397 108.895 38.7275C110.132 40.1153 110.75 42.2504 110.75 45.1327V55.6214L113.899 56.1818V58.7039H103.794V56.1818L106.943 55.6214V45.0927C106.943 41.5965 105.469 39.8484 102.519 39.8484C101.475 39.8484 100.522 40.1086 99.6592 40.629C98.809 41.1361 98.107 41.83 97.5531 42.7108V55.6214L100.703 56.1818V58.7039H90.5972Z" fill="black"/>
<path fill-rule="evenodd" clip-rule="evenodd" d="M152.715 37.9077C152.756 37.2242 152.777 36.5341 152.777 35.8382C152.777 20.0658 142.065 7.27983 128.85 7.27983C115.635 7.27983 104.923 20.0658 104.923 35.8382C104.923 36.5341 104.943 37.2242 104.984 37.9076C104.943 38.4987 104.923 39.0955 104.923 39.6974C104.923 53.2978 115.572 64.3307 128.732 64.3962C128.771 64.3964 128.811 64.3965 128.85 64.3965C128.889 64.3965 128.928 64.3964 128.968 64.3962C142.128 64.3307 152.777 53.2977 152.777 39.6974C152.777 39.0955 152.756 38.4987 152.715 37.9077Z" fill="#715EF6"/>
<ellipse rx="6.29391" ry="6.77806" transform="matrix(1 1.74846e-07 1.74846e-07 -1 137.178 23.3775)" fill="#D4CEFF"/>
<ellipse rx="6.29391" ry="6.77806" transform="matrix(1 1.74846e-07 1.74846e-07 -1 137.178 23.3775)" fill="white"/>
<ellipse cx="138.7" cy="25.7965" rx="1.93659" ry="1.45244" transform="rotate(-90 138.7 25.7965)" fill="black"/>
<ellipse rx="6.29391" ry="6.77806" transform="matrix(1 1.74846e-07 1.74846e-07 -1 120.717 23.3775)" fill="white"/>
<ellipse cx="123.207" cy="25.7965" rx="1.93659" ry="1.45244" transform="rotate(-90 123.207 25.7965)" fill="black"/>
<path d="M114.229 5.46257L143.515 2.64804L141.971 11.9102L128.077 13.4539L115.728 11.9102L114.229 5.46257Z" fill="black"/>
<path d="M107.756 6.81221L117.491 5.96053L150.909 3.03684L151.789 6.7197L154.486 6.48375L153.919 7.89131e-05L104.246 4.34592L104.813 10.8296L107.547 10.5904L107.756 6.81221Z" fill="black"/>
<ellipse cx="128.861" cy="46.7015" rx="16.0933" ry="14.7522" fill="#D4CEFF"/>
<path d="M128.146 34.9151C128.516 35.6472 129.561 35.6472 129.931 34.9151L131.794 31.2283C132.13 30.5631 131.646 29.7774 130.901 29.7774H127.176C126.431 29.7774 125.948 30.5631 126.284 31.2283L128.146 34.9151Z" fill="black"/>
<path d="M107.403 15.1763C107.403 14.0717 108.298 13.1763 109.403 13.1763H115.799C117.383 13.1763 118.339 14.9309 117.479 16.2617L112.231 24.3841L110.983 25.9929C109.815 27.499 107.403 26.6732 107.403 24.7674V15.1763Z" fill="#715EF6"/>
<path d="M150.318 15.1763C150.318 14.0717 149.423 13.1763 148.318 13.1763H141.922C140.337 13.1763 139.382 14.9309 140.242 16.2617L145.49 24.3841L146.738 25.9929C147.906 27.499 150.318 26.6732 150.318 24.7674V15.1763Z" fill="#715EF6"/>
<path d="M143.793 58.7011V56.1791L146.943 55.6186V32.6598L143.793 32.0993V29.5572H152.025L161.087 51.6754H161.202L169.975 29.5572H178.457V32.0993L175.307 32.6598V55.6186L178.457 56.1791V58.7011H168.352V56.1791L171.675 55.6186V34.9416L171.578 34.9216L162.439 57.6603H159.908L150.46 34.9617L150.363 34.9817L150.498 47.1717V55.6186L153.899 56.1791V58.7011H143.793Z" fill="black"/>
<path d="M192.02 59.1215C190.088 59.1215 188.407 58.6678 186.977 57.7604C185.547 56.8396 184.439 55.5652 183.654 53.9372C182.881 52.3092 182.494 50.4277 182.494 48.2926V47.4119C182.494 45.3569 182.9 43.522 183.712 41.9074C184.536 40.2794 185.625 38.9983 186.977 38.0642C188.342 37.1168 189.83 36.643 191.44 36.643C194.249 36.643 196.374 37.5238 197.817 39.2852C199.272 41.0467 200 43.3952 200 46.331V48.793H186.436L186.378 48.8931C186.417 50.9748 186.926 52.6895 187.905 54.0373C188.884 55.3717 190.255 56.039 192.02 56.039C193.308 56.039 194.435 55.8521 195.401 55.4785C196.38 55.0915 197.224 54.5644 197.933 53.8972L199.42 56.4593C198.673 57.2066 197.681 57.8404 196.445 58.3609C195.221 58.8679 193.746 59.1215 192.02 59.1215ZM186.552 45.7105H196.194V45.1901C196.194 43.6421 195.794 42.3477 194.996 41.3069C194.197 40.266 193.012 39.7456 191.44 39.7456C190.165 39.7456 189.077 40.306 188.175 41.427C187.273 42.5345 186.719 43.929 186.513 45.6104L186.552 45.7105Z" fill="black"/>
</svg>
